#!OML:ASF E:\Style4\Style4.ASF
:FULLY-SPECIFIED
:DEGREES
2276
root -0.174761 17.9211 -1.71723 -3.26793 -0.506152 1.20823
lowerback 3.37573 2.11472 -0.129135
upperback 3.50899 2.82299 -0.49138
thorax 1.72868 1.41634 -0.481671
lowerneck 5.42497 -3.48389 -6.12637
upperneck 15.154 -5.32124 4.74821
head 3.93665 -2.7541 2.36492
rclavicle 6.83012e-015 -9.51682e-015
rhumerus -297.587 -11.0928 -386.318
rradius 76.39
rwrist -68.3933
rhand -19.2864 22.4943
rfingers 7.12502
rthumb 7.02865 -7.369
lclavicle 6.83012e-015 -9.51682e-015
lhumerus 62.9905 8.43549 30.7691
lradius 78.9793
lwrist 64.8868
lhand -7.74979 25.4663
lfingers 7.12502
lthumb 18.1496 54.6395
rfemur -4.60039 2.61953 17.5472
rtibia 25.1939
rfoot -16.5307 -13.2299
rtoes -9.85435
lfemur -1.25732 -0.537116 -20.5108
ltibia 22.6514
lfoot -18.3489 11.3197
ltoes -13.0632
2277
root -0.176318 17.9178 -1.71643 -3.31955 -0.471537 1.23954
lowerback 3.3799 2.11848 -0.198933
upperback 3.51088 2.82669 -0.492699
thorax 1.72502 1.41672 -0.444326
lowerneck 5.44777 -3.52843 -6.05029
upperneck 14.8941 -5.37118 4.72621
head 3.85423 -2.77592 2.34573
rclavicle -1.01039e-014 1.13804e-014
rhumerus -298.342 -10.2714 -386.27
rradius 77.4755
rwrist -66.7024
rhand -19.8872 22.588
rfingers 7.12502
rthumb 6.44868 -7.29382
lclavicle -1.01039e-014 1.13804e-014
lhumerus 61.9367 7.66214 30.7411
lradius 80.1603
lwrist 64.0307
lhand -8.36795 25.5065
lfingers 7.12502
lthumb 17.5548 54.734
rfemur -4.58113 2.60823 17.5192
rtibia 25.2498
rfoot -16.4987 -13.288
rtoes -9.80248
lfemur -1.27868 -0.51446 -20.5335
ltibia 22.8043
lfoot -18.474 11.2658
ltoes -13.1254
2278
root -0.178681 17.915 -1.7148 -3.37916 -0.440918 1.20444
lowerback 3.39883 2.11312 -0.165068
upperback 3.55578 2.82021 -0.47452
thorax 1.76137 1.41404 -0.444158
lowerneck 5.18158 -3.61208 -6.11076
upperneck 14.7808 -5.46955 4.73218
head 3.87031 -2.82389 2.34946
rclavicle -2.71558e-014 3.11843e-015
rhumerus -299.043 -9.51836 -386.178
rradius 78.5574
rwrist -64.7459
rhand -20.5791 22.6745
rfingers 7.12502
rthumb 5.78077 -7.22661
lclavicle -2.71558e-014 3.11843e-015
lhumerus 60.8644 6.89122 30.7392
lradius 81.4269
lwrist 63.0628
lhand -9.23072 25.8042
lfingers 7.12502
lthumb 16.7243 55.1038
rfemur -4.54217 2.59751 17.5741
rtibia 25.3158
rfoot -16.5127 -13.3354
rtoes -10.0154
lfemur -1.27236 -0.502297 -20.4855
ltibia 22.9091
lfoot -18.5112 11.2068
ltoes -12.9058
2279
root -0.180509 17.9133 -1.71185 -3.41752 -0.421217 1.2035
lowerback 3.41525 2.14928 -0.0717154
upperback 3.68887 2.87163 -0.519971
thorax 1.89679 1.44272 -0.540916
lowerneck 4.44729 -3.69892 -6.16562
upperneck 14.7924 -5.56433 4.84716
head 4.00221 -2.85888 2.37488
rclavicle 1.39844e-014 -1.03865e-014
rhumerus -299.781 -8.93665 -386.105
rradius 79.6255
rwrist -62.5491
rhand -21.2386 22.82
rfingers 7.12502
rthumb 5.14393 -7.09759
lclavicle 1.39844e-014 -1.03865e-014
lhumerus 59.9882 6.15968 30.8093
lradius 82.7077
lwrist 61.978
lhand -9.95633 26.4072
lfingers 7.12502
lthumb 16.0257 55.7644
rfemur -4.50643 2.58813 17.5882
rtibia 25.3838
rfoot -16.5902 -13.3547
rtoes -10.0936
lfemur -1.2591 -0.505259 -20.4771
ltibia 22.9645
lfoot -18.5509 11.1631
ltoes -12.6085
2280
root -0.182802 17.912 -1.70916 -3.43869 -0.406004 1.20027
lowerback 3.44508 2.24073 0.0644766
upperback 3.85901 2.9984 -0.606464
thorax 2.06878 1.51115 -0.704182
lowerneck 3.38374 -3.84359 -6.14914
upperneck 14.9499 -5.72895 4.99586
head 4.23616 -2.91743 2.3882
rclavicle -1.963e-015 1.19892e-014
rhumerus -300.626 -8.46961 -386.054
rradius 80.7755
rwrist -60.3599
rhand -21.8389 22.7989
rfingers 7.12502
rthumb 4.56435 -7.13188
lclavicle -1.963e-015 1.19892e-014
lhumerus 59.2925 5.3501 30.9155
lradius 84.0057
lwrist 60.8415
lhand -10.7254 26.9111
lfingers 7.12502
lthumb 15.285 56.3263
rfemur -4.49425 2.53346 17.5942
rtibia 25.4347
rfoot -16.6434 -13.3194
rtoes -9.92061
lfemur -1.2535 -0.460617 -20.459
ltibia 23.0086
lfoot -18.5501 11.1517
ltoes -12.9355
2281
root -0.185791 17.9102 -1.7075 -3.46874 -0.398394 1.22549
lowerback 3.462 2.32059 0.069102
upperback 3.86967 3.10592 -0.666953
thorax 2.07558 1.56604 -0.770707
lowerneck 2.95863 -3.93237 -5.986
upperneck 14.8812 -5.82817 5.00372
head 4.28602 -2.95119 2.35088
rclavicle -9.0975e-015 7.67806e-015
rhumerus -301.526 -7.63871 -386.077
rradius 81.9512
rwrist -58.3552
rhand -22.2929 22.7045
rfingers 7.12502
rthumb 4.1259 -7.23527
lclavicle -9.0975e-015 7.67806e-015
lhumerus 58.2618 4.21969 30.9369
lradius 85.3521
lwrist 59.7056
lhand -11.7799 26.9704
lfingers 7.12502
lthumb 14.2691 56.4601
rfemur -4.48656 2.51894 17.581
rtibia 25.4743
rfoot -16.6659 -13.3488
rtoes -10.0462
lfemur -1.22265 -0.468268 -20.4723
ltibia 23.0283
lfoot -18.6045 11.0948
ltoes -12.7932
2282
root -0.188515 17.9094 -1.70429 -3.49638 -0.384263 1.25258
lowerback 3.46866 2.37955 0.0701359
upperback 3.92192 3.18558 -0.705469
thorax 2.12937 1.60674 -0.810735
lowerneck 2.38955 -4.00919 -5.88075
upperneck 14.6855 -5.9027 5.02362
head 4.32162 -2.97363 2.32459
rclavicle -2.53388e-014 7.55382e-015
rhumerus -302.277 -6.76921 -386.143
rradius 83.0413
rwrist -56.5958
rhand -22.3703 23.2116
rfingers 7.12502
rthumb 4.05122 -6.72961
lclavicle -2.53388e-014 7.55382e-015
lhumerus 57.1526 3.0656 31.0617
lradius 86.7221
lwrist 58.4278
lhand -12.8887 26.5783
lfingers 7.12502
lthumb 13.2005 56.1404
rfemur -4.46734 2.50721 17.5617
rtibia 25.5052
rfoot -16.6744 -13.3747
rtoes -10.1299
lfemur -1.18789 -0.456815 -20.4928
ltibia 23.0201
lfoot -18.5596 11.1046
ltoes -12.693
2283
root -0.188778 17.91 -1.69886 -3.5042 -0.36247 1.25563
lowerback 3.38711 2.44935 0.0787288
upperback 3.74815 3.27832 -0.730769
thorax 1.99904 1.65309 -0.843702
lowerneck 2.68365 -4.06293 -5.79855
upperneck 14.2839 -5.98255 5.07076
head 4.15406 -3.01213 2.33135
rclavicle 2.99419e-015 -1.73937e-015
rhumerus -303.312 -5.60212 -386.059
rradius 84.0637
rwrist -55.1147
rhand -22.0213 24.3568
rfingers 7.12502
rthumb 4.38819 -5.57772
lclavicle 2.99419e-015 -1.73937e-015
lhumerus 55.7452 1.43372 31.2041
lradius 88.1901
lwrist 57.2004
lhand -13.9678 26.3977
lfingers 7.12502
lthumb 12.1602 56.0243
rfemur -4.45114 2.46327 17.5544
rtibia 25.5412
rfoot -16.7477 -13.3568
rtoes -10.2632
lfemur -1.14966 -0.463647 -20.495
ltibia 22.9756
lfoot -18.5337 11.1318
ltoes -12.7221
2284
root -0.188699 17.9087 -1.69018 -3.5233 -0.374665 1.33331
lowerback 3.289 2.5387 0.0357199
upperback 3.58761 3.39683 -0.791307
thorax 1.89148 1.71163 -0.883236
lowerneck 2.9885 -4.13639 -5.66861
upperneck 13.8725 -6.07838 5.03372
head 3.97959 -3.06028 2.30472
rclavicle 2.92648e-014 -3.23025e-015
rhumerus -304.386 -4.55165 -385.877
rradius 85.1495
rwrist -53.8366
rhand -21.4873 25.1833
rfingers 7.12502
rthumb 4.90383 -4.73991
lclavicle 2.92648e-014 -3.23025e-015
lhumerus 54.3189 -0.231844 31.4134
lradius 89.5321
lwrist 55.9131
lhand -14.4387 26.5439
lfingers 7.12502
lthumb 11.7061 56.1968
rfemur -4.40625 2.45052 17.4564
rtibia 25.5504
rfoot -16.7515 -13.3283
rtoes -10.2516
lfemur -1.07327 -0.469216 -20.5902
ltibia 22.9379
lfoot -18.588 11.1314
ltoes -12.9098
2285
root -0.188383 17.9068 -1.68154 -3.5629 -0.403412 1.37893
lowerback 3.1988 2.57152 -0.0385736
upperback 3.32055 3.43736 -0.781067
thorax 1.66226 1.72915 -0.835444
lowerneck 3.82701 -4.13081 -5.58596
upperneck 13.0242 -6.04408 4.75968
head 3.97887 -3.08103 2.44186
rclavicle 1.25793e-014 3.62782e-015
rhumerus -305.327 -3.18821 -385.724
rradius 86.3106
rwrist -52.9267
rhand -20.7341 25.449
rfingers 7.12502
rthumb 5.63104 -4.45623
lclavicle 1.25793e-014 3.62782e-015
lhumerus 52.4771 -2.03694 31.6467
lradius 90.8604
lwrist 54.5906
lhand -14.4102 26.9166
lfingers 7.12502
lthumb 11.7335 56.568
rfemur -4.33516 2.39358 17.3858
rtibia 25.5493
rfoot -16.7896 -13.2283
rtoes -10.2514
lfemur -0.964966 -0.463827 -20.6504
ltibia 22.9054
lfoot -18.6246 11.1341
ltoes -13.0212
2286
root -0.188616 17.9065 -1.67731 -3.56173 -0.439647 1.34803
lowerback 3.15654 2.62182 0.0072595
upperback 3.19143 3.50431 -0.769253
thorax 1.55597 1.76296 -0.851626
lowerneck 3.94376 -4.17508 -5.63147
upperneck 12.6526 -6.1045 4.82087
head 3.83236 -3.11277 2.47131
rclavicle -1.17562e-014 1.37161e-014
rhumerus -306.119 -2.14743 -385.613
rradius 87.4758
rwrist -52.3926
rhand -19.7966 25.6129
rfingers 7.12502
rthumb 6.53617 -4.26627
lclavicle -1.17562e-014 1.37161e-014
lhumerus 50.8864 -3.6751 31.9677
lradius 92.1837
lwrist 53.0264
lhand -14.4045 27.1509
lfingers 7.12502
lthumb 11.7391 56.802
rfemur -4.32228 2.40945 17.4184
rtibia 25.5437
rfoot -16.8727 -13.1639
rtoes -10.0144
lfemur -0.933798 -0.426552 -20.6104
ltibia 22.8747
lfoot -18.5845 11.1695
ltoes -13.2002
2287
root -0.188775 17.9062 -1.67227 -3.5469 -0.501264 1.31925
lowerback 3.09418 2.69109 0.0754702
upperback 3.14443 3.59801 -0.776509
thorax 1.54864 1.81112 -0.896595
lowerneck 3.70278 -4.24131 -5.68381
upperneck 12.3414 -6.18074 4.88649
head 3.77676 -3.14791 2.49654
rclavicle 5.26779e-015 2.14687e-014
rhumerus -306.813 -1.32037 -385.589
rradius 88.5668
rwrist -51.7739
rhand -18.7535 25.9413
rfingers 7.12502
rthumb 7.54305 -3.9042
lclavicle 5.26779e-015 2.14687e-014
lhumerus 49.418 -5.2389 32.4078
lradius 93.4904
lwrist 51.322
lhand -14.3833 27.4619
lfingers 7.12502
lthumb 11.7595 57.1118
rfemur -4.3164 2.42925 17.4523
rtibia 25.5276
rfoot -16.9127 -13.1333
rtoes -10.0277
lfemur -0.901775 -0.467009 -20.5903
ltibia 22.8381
lfoot -18.6173 11.2593
ltoes -13.1022
2288
root -0.188148 17.907 -1.6659 -3.52395 -0.56647 1.32574
lowerback 3.02567 2.75965 0.106199
upperback 3.06658 3.69001 -0.803113
thorax 1.51213 1.85774 -0.941018
lowerneck 3.63983 -4.29834 -5.62723
upperneck 11.8935 -6.24013 4.87878
head 3.63009 -3.17451 2.48028
rclavicle -1.20637e-014 6.31141e-015
rhumerus -307.479 -0.435915 -385.615
rradius 89.6479
rwrist -51.0624
rhand -17.699 26.2332
rfingers 7.12502
rthumb 8.56085 -3.57328
lclavicle -1.20637e-014 6.31141e-015
lhumerus 47.8508 -6.90626 32.8936
lradius 94.6656
lwrist 49.5602
lhand -14.2873 27.4787
lfingers 7.12502
lthumb 11.8521 57.1233
rfemur -4.31378 2.37474 17.4338
rtibia 25.4938
rfoot -16.8464 -13.0574
rtoes -10.2259
lfemur -0.874545 -0.586987 -20.6307
ltibia 22.815
lfoot -18.6649 11.4631
ltoes -13.1979
